HIERARCHY
ROOT base
{
	OFFSET 0.0 0.0 0.0
	CHANNELS 6 Xposition Yposition Zposition Zrotation Yrotation Xrotation
	JOINT root
	{
		OFFSET 0 0 0
		CHANNELS 6 Xposition Yposition Zposition Zrotation Yrotation Xrotation
		JOINT chest
		{
			OFFSET 0 4.72302 0
			CHANNELS 3 Zrotation Yrotation Xrotation
			JOINT neck
			{
				OFFSET 0 4.47788 0
				CHANNELS 3 Zrotation Yrotation Xrotation
				End Site
				{
					OFFSET 0.0 0.0 0.0
				}
			}
			JOINT right_shoulder
			{
				OFFSET -0.481 4.87 3.6622
				CHANNELS 3 Zrotation Yrotation Xrotation
				JOINT right_elbow
				{
					OFFSET 0 -5.49576 0
					CHANNELS 3 Zrotation Yrotation Xrotation
					JOINT right_wrist
					{
						OFFSET 0 -5.17894 0
						CHANNELS 3 Zrotation Yrotation Xrotation
						End Site
						{
							OFFSET 0.0 0.0 0.0
						}
					}
				}
			}
			JOINT left_shoulder
			{
				OFFSET -0.481 4.87 -3.6622
				CHANNELS 3 Zrotation Yrotation Xrotation
				JOINT left_elbow
				{
					OFFSET 0 -5.49576 0
					CHANNELS 3 Zrotation Yrotation Xrotation
					JOINT left_wrist
					{
						OFFSET 0 -5.17894 0
						CHANNELS 3 Zrotation Yrotation Xrotation
						End Site
						{
							OFFSET 0.0 0.0 0.0
						}
					}
				}
			}
		}
		JOINT right_hip
		{
			OFFSET 0 0 1.69774
			CHANNELS 3 Zrotation Yrotation Xrotation
			JOINT right_knee
			{
				OFFSET 0 -8.43092 0
				CHANNELS 3 Zrotation Yrotation Xrotation
				JOINT right_ankle
				{
					OFFSET 0 -8.1974 0
					CHANNELS 3 Zrotation Yrotation Xrotation
					End Site
					{
						OFFSET 0.0 0.0 0.0
					}
				}
			}
		}
		JOINT left_hip
		{
			OFFSET 0 0 -1.69774
			CHANNELS 3 Zrotation Yrotation Xrotation
			JOINT left_knee
			{
				OFFSET 0 -8.43092 0
				CHANNELS 3 Zrotation Yrotation Xrotation
				JOINT left_ankle
				{
					OFFSET 0 -8.1974 0
					CHANNELS 3 Zrotation Yrotation Xrotation
					End Site
					{
						OFFSET 0.0 0.0 0.0
					}
				}
			}
		}
	}
	JOINT red_arrow
	{
		OFFSET 0 0 0
		CHANNELS 3 Zrotation Yrotation Xrotation
		End Site
		{
			OFFSET 0.0 0.0 0.0
		}
	}
	JOINT blue_arrow
	{
		OFFSET 0 0 0
		CHANNELS 3 Zrotation Yrotation Xrotation
		End Site
		{
			OFFSET 0.0 0.0 0.0
		}
	}
}
MOTION
Frames: 17
Frame Time: 0.0333333333333333
0 18.08466 0 0 0 0 0 0 0 0 -90 0 0 0 0 0 0 0 0 0 -90 0 0 0 0 0 0 0 0 90 0 0 0 0 0 0 0 0 0 0 0 0 0 0 0 0 0 0 0 0 0 0 0 0 0 0 0 0 0 0
1.74980152249336 0 -0.0599907018244266 0 -7.87939921768155 0 0 15.977886557579 0 -26.0721787074674 1.19270800554882E-15 -10.3602603314187 -0.0118209532665813 -0.0719742601537188 7.69076804512372 -1.91944357042619 -0.81910430585696 0.435481792698455 1.64936145330802 22.3358679938764 -31.8664313999855 71.301102896761 0 0 0 0 0 -23.9349696514349 -23.3309704350506 36.6954425342717 64.3009991107658 0 0 0 0 0 52.7900627281107 -2.42488152597086 10.414078109429 -46.3882098802875 0 0 19.9280771061245 4.46502097094038 -1.11408226246806 30.45560153363 2.9042292830838 12.6068030129706 -94.2188259396874 0 0 -1.11129509431969 3.92651278527469 -13.5903945473782 0 0 0 0 0 0
3.56558390259743 0 -0.00551688000559804 0 -8.11454238052247 0 0 16.3421030163765 0 -27.8853256433405 -3.95070279908066 -12.1844955079086 1.99980492250013 2.12082506806772 5.80127817143701 -1.34347553554498 -1.84536238109809 0.528922618951871 22.0377744339813 31.3366886100358 -35.1154956522493 67.814031778281 0 0 0 0 0 -47.9967921683661 -26.1950528426398 47.4299034357232 53.1318810440837 0 0 0 0 0 43.8998200131399 -2.87073559691131 13.1983663779019 -37.7183775592235 0 0 22.002337371374 8.66188768138661 -0.894389753935188 49.4383038560841 -4.62356091886668 18.8341659116662 -99.4096945768163 0 0 8.21746049858984 9.57705020533563 -14.5273139672082 0 0 0 0 0 0
5.80929815769196 0 -0.127876457571983 0 -8.12724779491886 0 0 16.9263311386108 0 -26.912549484478 -0.215258819818825 -11.8658511064132 -1.22628458762355 0.785321473399253 1.86828004128865 0.769247918517523 -3.12685977063513 -0.467521739125401 33.0554265979997 34.1670955109104 -37.1272258716098 76.5772259551099 0 0 0 0 0 -61.32977530136 -20.5380503494533 50.6248120276179 56.6746182042993 0 0 0 0 0 25.520822662867 -0.137430730423498 10.7683083959587 -18.2384304519897 0 0 17.5703048163967 6.99136340378041 -0.402597574636935 59.835442942927 -11.6989730520226 15.6496797400374 -95.2026054066011 0 0 14.9293016445097 16.5014267060798 -20.688321926667 0 0 0 0 0 0
7.96726567745209 0 -0.434796148538589 0 -7.92397197352929 0 0 17.5102523207664 0 -27.7742475182451 3.41839742198552 -10.7901122362715 -4.23777330351505 -0.26111521178975 -0.903054250356348 2.45787339436174 -2.82608411403291 -0.9792669576443 37.0152231421081 34.4633821858131 -40.104916484739 88.2485370956118 0 0 0 0 0 -68.082267950001 -12.1621928741996 48.4613998216354 63.5982477772524 0 0 0 0 0 14.1474110245009 1.41880836604896 7.55119322264956 -6.26107561025249 0 0 -0.246445502752774 3.70384817441237 -1.08438051082494 66.9897949513838 -13.9334748445124 10.4496282593179 -82.0596890282849 0 0 19.9818575371384 18.9886924753324 -23.4888772387373 0 0 0 0 0 0
10.0866541802883 0 -0.866060250997543 0 -7.55973329985387 0 0 17.986464214325 0 -28.227390271313 6.1041541623187 -9.51901284969495 -8.40049230980248 -0.564325236672249 -1.9214805677182 0.462342920462058 -1.78501844939149 -0.793266168942344 38.5187505328763 35.4917278842706 -45.3966389535294 97.0506360299531 0 0 0 0 0 -69.0994420857938 -4.25990073057873 42.990495713452 66.3536553714622 0 0 0 0 0 6.59774560058226 2.11277841938057 4.26947485528855 -1.81494454668223 0 0 -26.8814970882154 2.02461953009847 -2.84687503961847 68.9852431797568 -12.5540104545586 6.30959424313616 -62.7559215280497 0 0 24.0751712756173 20.3937568183605 -25.1856756433793 0 0 0 0 0 0
12.2895660281181 0 -1.37903682589531 0 -7.08613761337374 0 0 18.1791823983192 0 -27.6342926148997 7.98592043324177 -7.70092076413773 -11.5496198212597 -0.070822370419602 -2.13420843821886 -4.49155639702539 -1.77938118060989 -1.46026989788618 38.9647482906529 35.8787733954355 -50.3248484798137 102.691409227711 0 0 0 0 0 -67.3881974441821 1.88510501305067 36.7483899733081 66.6171777300197 0 0 0 0 0 -0.499634225499403 2.50585259886703 0.616712720502658 -3.44677321582031 0 0 -42.6335695919465 1.82529918816488 -4.30811062133895 67.5359369917171 -10.6235439357245 3.17420363206865 -42.3997960465394 0 0 27.3938439161523 19.8463908913 -25.7276195941774 0 0 0 0 0 0
14.6307537198067 0 -1.88894307687879 0 -6.59852482379844 0 0 18.0781258821487 0 -25.2422670322532 8.39323761678995 -5.50517688779952 -14.2401377914684 1.0737392905759 -2.45369920773817 -9.14080065666415 -3.78696787700392 -4.41623241745174 39.1409688209693 35.5558482070771 -52.7034102884867 105.423949348579 0 0 0 0 0 -64.7998133401509 7.59259956542897 31.7981790417031 65.9471498328198 0 0 0 0 0 -7.16611347094918 2.09240095670947 -2.56542204977808 -11.6894862738833 0 0 -45.9892376375362 2.56204983595117 -4.31261614647883 62.9378375447495 -8.93129176387641 1.61619080072806 -26.3881626507775 0 0 29.2991311486585 17.912787958677 -24.5272171607022 0 0 0 0 0 0
17.0591167867184 0 -2.34402763321996 0 -6.15434965732987 0 0 17.7622007131577 0 -21.9292535978826 7.83658290499889 -3.44052281242755 -16.4789118048052 2.58719089048843 -3.15744042721151 -11.875657459619 -6.48332392601723 -8.6353795494701 38.3555227336661 32.1975818708323 -49.8647526594698 106.663785777288 0 0 0 0 0 -60.2595098159356 12.2750446309425 29.0669424213591 65.0435362961946 0 0 0 0 0 -11.6098005349554 1.41048401187211 -4.91006770598343 -25.9958843961761 0 0 -41.8441144969225 2.9585391287138 -3.80797847759942 57.5444576615131 -7.67913062892498 0.849907597847235 -18.9980260348706 0 0 30.2880066056117 15.8326405611675 -21.4058882505006 0 0 0 0 0 0
19.46624969244 0 -2.70419944161549 0 -5.75355683266613 0 0 17.3060076594353 0 -19.0419390285839 7.20286836476701 -2.15026210879384 -18.31860117017 4.38022848136901 -4.19025561925647 -12.4692431004971 -8.50106769012103 -12.3566220899762 35.4962917134758 24.9720038536291 -42.6371215066723 105.234623334976 0 0 0 0 0 -53.2827251288106 14.6420765149063 27.6050282347023 64.4924356528229 0 0 0 0 0 -12.6815574705788 1.0539925604361 -5.4628852487373 -43.869242944576 0 0 -34.4511206393041 2.71766212012368 -3.10995503448522 53.1688391770693 -6.85386483891729 0.143848602629775 -19.7317164177769 0 0 29.7822339500699 13.8715325028901 -17.1674855055379 0 0 0 0 0 0
21.7684364855289 0 -2.98614172060043 0 -5.37819752683221 0 0 16.7461461186409 0 -17.5860684518088 6.8017129252829 -1.82209494056248 -19.6140502695311 5.98786372595655 -5.21499972724892 -12.4482890144056 -8.5940331680275 -14.8551405330059 29.791492748773 16.5682470560249 -33.4144563380281 99.1495668222763 0 0 0 0 0 -44.8111832916387 13.350830887012 25.1009244091111 64.002431051577 0 0 0 0 0 -9.46910500368275 0.739151622389129 -3.89469383442161 -62.4341308256829 0 0 -26.2777216504558 2.36907919420138 -2.35599225339128 50.4537515935 -6.94265369630206 -0.842852408388098 -26.3494730442239 0 0 27.3326327415945 12.5273219799316 -12.3358887965385 0 0 0 0 0 0
23.9051068484783 0 -3.26959140589461 0 -4.93717674497503 0 0 16.2656156539917 0 -17.6273135923389 7.99115719514628 -1.59995716299504 -20.528519730737 5.61459003382738 -5.97008113997696 -13.1803962715165 -7.28043472032432 -14.7962713690289 20.2083327460622 10.0212244167668 -23.8981125489928 90.2535527868474 0 0 0 0 0 -33.554836358794 8.33362680325258 19.7115804917991 64.8160773364548 0 0 0 0 0 -1.89649190979148 -1.98027379998065 -2.15886448245568 -78.5738814948014 0 0 -17.7784168434819 1.55980589420755 -1.36330495177802 51.7412330966554 -6.64290292106035 -4.37128455513128 -38.0399804313881 0 0 12.8368979044437 10.8764168963099 0.661446048110884 0 0 0 0 0 0
25.8582850217819 0 -3.64080721251667 0 -4.36877277635294 0 0 16.0145379543304 0 -19.7483528814576 10.178179315792 -0.478034770824887 -18.1552917403633 4.63137603396938 -6.18362763457678 -14.2115292886003 -5.66501286362801 -12.5755042846188 4.96353650573616 9.61688385716178 -18.0824831989015 79.041940698244 0 0 0 0 0 -15.7508054039835 -0.987942857588608 13.7341301606171 68.5474370007895 0 0 0 0 0 13.1949532852379 -5.67824857010081 -4.31572489469435 -93.1150127283 0 0 -6.76136755651166 -0.847354653050944 2.59334464873062 51.6477942167766 -4.18713966030582 -7.62787997793006 -46.1620008451658 0 0 14.5471733989712 8.18048874579848 1.29420332108398 0 0 0 0 0 0
27.5362923800945 0 -4.09912378564477 0 -3.60164972717882 0 0 16.0973852753639 0 -24.4113273063388 13.3209201958481 1.98954304818333 -12.0588320391171 1.94370131665702 -6.44705314169692 -13.4011597706367 -1.50673561690044 -10.3965952886552 -11.4727561055717 16.0357440631215 -19.0410777270371 64.076791321071 0 0 0 0 0 6.88113110066433 -13.743833965612 15.6447730742095 75.0681298089414 0 0 0 0 0 37.3917896002283 -4.39614463197031 -12.2713486469067 -105.288301791663 0 0 4.47316562243978 -1.92695444046748 14.0335333389934 49.0124418594099 0.322051415995664 -11.648686009112 -45.0904022209988 0 0 20.2999796267055 2.86818595795836 3.41484169440516 0 0 0 0 0 0
29.3134491086006 0 -4.51669704020023 0 -2.75533211636993 0 0 16.4639730215073 0 -28.6393458619801 14.1973962960216 3.71220272657314 -4.69068173713941 -0.437075395511547 -6.10081628422331 -12.1386583105491 3.79377683304798 -7.49215734277884 -32.4519076542222 24.8577707486037 -28.0817058854752 52.9258961990945 0 0 0 0 0 26.0881915921272 -27.0853223642926 25.4027360545653 81.5314626884436 0 0 0 0 0 60.8469178442429 5.46655620231029 -15.5779261930795 -110.794813960905 0 0 17.8167402375588 -3.74424294864104 27.6474808582366 41.5602638699712 1.10613424996316 -14.4192334538993 -35.3886683352239 0 0 21.984985324743 0.29062285391095 4.25094453762266 0 0 0 0 0 0
31.6334588289261 0 -4.70244862437248 0 -2.19525446246264 0 0 17.0073116660118 0 -27.6287032529627 9.45129840030583 2.3605443894571 -3.30089751511527 -0.603274184512965 -3.36532204131284 -8.75683740328721 4.66072257866517 -4.46118344201022 -45.5872303125404 23.5868445526773 -36.8681207925835 47.7694995267067 0 0 0 0 0 35.8905604165749 -34.7866849156354 36.9006329340546 87.6331985230962 0 0 0 0 0 72.5860625435206 6.22728855450391 -9.95083943872076 -104.577333740578 0 0 25.7219939327525 -9.85655630184186 30.1246128608741 24.0545184647912 -2.36991627890583 -10.8703585240475 -16.9211806592286 0 0 17.3116312944037 2.73966233181084 4.3769535255962 0 0 0 0 0 0
33.831867903471 0 -4.76913519352675 0 -1.81886190394715 0 0 17.6017065167427 0 -28.1407585399353 6.31337294680467 0.694352524586303 -3.45737305646338 -1.83884878032691 -2.03647583947567 -5.40181202038938 1.91497579536377 -3.05932026630868 -50.4121726992265 14.3664373278639 -39.8750039342582 49.2717484082322 0 0 0 0 0 38.1677052326248 -40.0087213324682 50.6904768092427 95.9979126335573 0 0 0 0 0 78.5820814681959 0.601946500884042 -7.12919659039414 -88.5576919480141 0 0 26.4857177356201 -11.8344673838901 27.7342542322164 15.0548674370741 -2.02400212167454 -7.72138667080295 -9.75732821052425 0 0 -0.622079220527889 4.21143078004438 2.9521866986629 0 0 0 0 0 0
